<svg xmlns="http://www.w3.org/2000/svg" viewBox="0 0 123.67 123.67"><defs><style>.cls-1,.cls-3{fill:#231f20;}.cls-1{stroke:#fdfefe;stroke-miterlimit:10;}.cls-2,.cls-4{fill:#fff;}.cls-2,.cls-3{stroke:#727373;stroke-linejoin:round;stroke-width:1.13px;}.cls-4{font-size:17.51px;font-family:AdobeArabic-Regular, Adobe Arabic;letter-spacing:-0.01em;}.cls-5{letter-spacing:0em;}.cls-6{letter-spacing:0em;}.cls-7{letter-spacing:0.01em;}</style></defs><title>Asset 3</title><g id="Layer_2" data-name="Layer 2"><g id="Layer_1-2" data-name="Layer 1"><rect class="cls-1" x="0.5" y="0.5" width="122.67" height="122.67"/><polygon class="cls-2" points="62.55 106.62 45.18 60.31 71.05 17.04 48.26 17.04 22.38 60.31 39.75 106.62 62.55 106.62"/><polygon class="cls-2" points="101.28 92.03 57.07 92.03 39.28 106.62 101.28 106.62 101.28 92.03"/><line class="cls-3" x1="39.28" y1="94.68" x2="41.91" y2="101.78"/><line class="cls-3" x1="44.53" y1="89.79" x2="47.16" y2="96.89"/><line class="cls-3" x1="49.78" y1="86.03" x2="52.41" y2="93.13"/><line class="cls-3" x1="46.29" y1="103.08" x2="55.89" y2="103.16"/><line class="cls-3" x1="51.63" y1="99.29" x2="61.24" y2="99.37"/><line class="cls-3" x1="56.44" y1="95.07" x2="66.04" y2="95.16"/><text/><text class="cls-4" transform="translate(59.44 89.58) scale(0.98 1)">K<tspan class="cls-5" x="8.7" y="0">n</tspan><tspan class="cls-6" x="15.71" y="0">e</tspan><tspan class="cls-7" x="21.16" y="0">L</tspan><tspan class="cls-6" x="28.33" y="0">ad</tspan></text></g></g></svg>