<svg xmlns="http://www.w3.org/2000/svg" viewBox="0 0 80.03 90.71"><defs><style>.cls-1{fill:#231f20;stroke:#727373;stroke-linejoin:round;stroke-width:1.13px;}.cls-2{fill:none;stroke:#fff;stroke-miterlimit:10;stroke-width:0.56px;}.cls-3{font-size:17.51px;fill:#727373;font-family:AdobeArabic-Regular, Adobe Arabic;letter-spacing:-0.01em;}.cls-4{letter-spacing:0em;}.cls-5{letter-spacing:0em;}.cls-6{letter-spacing:0.01em;}</style></defs><title>Asset 5</title><g id="Layer_2" data-name="Layer 2"><g id="Layer_1-2" data-name="Layer 1"><polygon class="cls-1" points="40.73 90.14 23.36 43.83 49.23 0.56 26.43 0.56 0.56 43.83 17.93 90.14 40.73 90.14"/><polygon class="cls-1" points="79.46 75.55 35.26 75.55 17.46 90.14 79.46 90.14 79.46 75.55"/><line class="cls-2" x1="17.46" y1="78.2" x2="20.09" y2="85.3"/><line class="cls-2" x1="22.71" y1="73.31" x2="25.34" y2="80.41"/><line class="cls-2" x1="27.96" y1="69.55" x2="30.59" y2="76.65"/><line class="cls-2" x1="24.47" y1="86.6" x2="34.07" y2="86.68"/><line class="cls-2" x1="29.81" y1="82.81" x2="39.42" y2="82.89"/><line class="cls-2" x1="34.62" y1="78.59" x2="44.22" y2="78.68"/><text/><text class="cls-3" transform="translate(37.62 73.1) scale(0.98 1)">K<tspan class="cls-4" x="8.7" y="0">n</tspan><tspan class="cls-5" x="15.71" y="0">e</tspan><tspan class="cls-6" x="21.16" y="0">L</tspan><tspan class="cls-5" x="28.33" y="0">ad</tspan></text></g></g></svg>